<?xml version="1.0" encoding="UTF-8" standalone="no"?>
<svg width="374px" height="52px" viewBox="0 0 374 52" version="1.1" xmlns="http://www.w3.org/2000/svg" xmlns:xlink="http://www.w3.org/1999/xlink">
    <!-- Generator: Sketch 3.8.3 (29802) - http://www.bohemiancoding.com/sketch -->
    <title>PROSPERS Copy</title>
    <desc>Created with Sketch.</desc>
    <defs></defs>
    <g id="Page-1" stroke="none" stroke-width="1" fill="none" fill-rule="evenodd">
        <path d="M20.5108696,29.6231884 C30.076087,29.6231884 37.0326087,24.9130435 37.0326087,15.4927536 C37.0326087,5.71014493 30.076087,1 20.5108696,1 C15.365942,1 11.0181159,1.72463768 6.59782609,1.72463768 L1.16304348,1.72463768 C0.945652174,3.10144928 0.945652174,4.55072464 1.16304348,5.71014493 L6.59782609,6.43478261 L6.59782609,45.5652174 L1.16304348,46.2898551 C0.945652174,47.4492754 0.945652174,48.8985507 1.16304348,50.2753623 L20.365942,50.2753623 C20.5833333,48.8985507 20.5833333,47.4492754 20.365942,46.2898551 L12.7572464,45.5652174 L12.7572464,29.3333333 C15.2210145,29.5507246 17.7572464,29.6231884 20.5108696,29.6231884 L20.5108696,29.6231884 Z M12.7572464,6.72463768 C15.2210145,6.50724638 17.7572464,6.43478261 20.5108696,6.43478261 C26.5253623,6.43478261 30.5108696,8.97101449 30.5108696,15.4927536 C30.5108696,21.6521739 26.5253623,24.1884058 20.5108696,24.1884058 C17.7572464,24.1884058 15.2210145,24.115942 12.7572464,23.8985507 L12.7572464,6.72463768 Z M83.8039452,45.5652174 L71.8474235,28.6811594 C78.0793076,27.0869565 82.4271337,22.6666667 82.4271337,15.4927536 C82.4271337,5.71014493 75.4706119,1 66.6300322,1 C61.4851047,1 57.1372786,1.72463768 52.7169887,1.72463768 L47.2822061,1.72463768 C47.0648148,3.10144928 47.0648148,4.55072464 47.2822061,5.71014493 L52.7169887,6.43478261 L52.7169887,45.5652174 L47.2822061,46.2898551 C47.0648148,47.4492754 47.0648148,48.8985507 47.2822061,50.2753623 L64.3111916,50.2753623 C64.5285829,48.8985507 64.5285829,47.4492754 64.3111916,46.2898551 L58.876409,45.5652174 L58.876409,28.9710145 C60.8329308,29.115942 62.93438,29.1884058 65.1082931,29.2608696 L79.6735105,50.2753623 L89.2387279,50.2753623 C89.4561192,48.8985507 89.4561192,47.4492754 89.2387279,46.2898551 L83.8039452,45.5652174 Z M58.876409,6.72463768 C61.3401771,6.50724638 63.876409,6.43478261 66.6300322,6.43478261 C71.9198873,6.43478261 75.9053945,8.97101449 75.9053945,15.4927536 C75.9053945,21.2898551 71.9198873,23.826087 66.6300322,23.826087 C63.876409,23.826087 61.3401771,23.7536232 58.876409,23.5362319 L58.876409,6.72463768 Z M121.589775,1 C110.140499,1 98.0390499,7.23188406 98.0390499,26 C98.0390499,44.7681159 110.140499,51 121.589775,51 C133.03905,51 145.140499,44.7681159 145.140499,26 C145.140499,7.23188406 133.03905,1 121.589775,1 L121.589775,1 Z M121.589775,45.5652174 C112.676731,45.5652174 104.560789,39.7681159 104.560789,26 C104.560789,12.2318841 112.676731,6.43478261 121.589775,6.43478261 C130.502818,6.43478261 138.61876,12.2318841 138.61876,26 C138.61876,39.7681159 130.502818,45.5652174 121.589775,45.5652174 L121.589775,45.5652174 Z M165.027778,13.6811594 C165.027778,8.60869565 167.708937,6.43478261 173.433575,6.43478261 C175.824879,6.43478261 178.071256,6.94202899 180.100242,7.66666667 L180.824879,15.2028986 C182.056763,15.4202899 184.30314,15.4202899 185.535024,15.2028986 L185.535024,4.1884058 C182.129227,2.44927536 178.650966,1 173.433575,1 C163.940821,1 158.868357,6.14492754 158.868357,13.6811594 C158.868357,29.9855072 181.766908,25.8550725 181.766908,37.5217391 C181.766908,43.3913043 177.274155,45.5652174 171.839372,45.5652174 C169.30314,45.5652174 166.766908,45.057971 164.448068,44.1884058 L163.72343,36.7971014 C162.491546,36.5797101 160.245169,36.5797101 159.013285,36.7971014 L159.013285,47.8115942 C162.419082,49.5507246 166.621981,51 171.839372,51 C182.274155,51 187.998792,46 187.998792,37.5217391 C187.998792,21.3623188 165.027778,24.7681159 165.027778,13.6811594 L165.027778,13.6811594 Z M219.045491,29.6231884 C228.610709,29.6231884 235.56723,24.9130435 235.56723,15.4927536 C235.56723,5.71014493 228.610709,1 219.045491,1 C213.900564,1 209.552738,1.72463768 205.132448,1.72463768 L199.697665,1.72463768 C199.480274,3.10144928 199.480274,4.55072464 199.697665,5.71014493 L205.132448,6.43478261 L205.132448,45.5652174 L199.697665,46.2898551 C199.480274,47.4492754 199.480274,48.8985507 199.697665,50.2753623 L218.900564,50.2753623 C219.117955,48.8985507 219.117955,47.4492754 218.900564,46.2898551 L211.291868,45.5652174 L211.291868,29.3333333 C213.755636,29.5507246 216.291868,29.6231884 219.045491,29.6231884 L219.045491,29.6231884 Z M211.291868,6.72463768 C213.755636,6.50724638 216.291868,6.43478261 219.045491,6.43478261 C225.059984,6.43478261 229.045491,8.97101449 229.045491,15.4927536 C229.045491,21.6521739 225.059984,24.1884058 219.045491,24.1884058 C216.291868,24.1884058 213.755636,24.115942 211.291868,23.8985507 L211.291868,6.72463768 Z M275.6719,44.8405797 L257.773349,44.8405797 L257.773349,27.7391304 L274.802335,28.173913 L274.802335,22.7391304 L257.773349,23.173913 L257.773349,7.15942029 L274.222625,7.15942029 L274.802335,13.4637681 C276.034219,13.6811594 278.280596,13.6811594 279.51248,13.4637681 L279.51248,1.72463768 L246.179147,1.72463768 C245.961755,3.10144928 245.961755,4.55072464 246.179147,5.71014493 L251.613929,6.43478261 L251.613929,45.5652174 L246.179147,46.2898551 C245.961755,47.4492754 245.961755,48.8985507 246.179147,50.2753623 L280.961755,50.2753623 L280.961755,38.5362319 C279.729871,38.3188406 277.483494,38.3188406 276.25161,38.5362319 L275.6719,44.8405797 Z M327.733092,45.5652174 L315.77657,28.6811594 C322.008454,27.0869565 326.35628,22.6666667 326.35628,15.4927536 C326.35628,5.71014493 319.399758,1 310.559179,1 C305.414251,1 301.066425,1.72463768 296.646135,1.72463768 L291.211353,1.72463768 C290.993961,3.10144928 290.993961,4.55072464 291.211353,5.71014493 L296.646135,6.43478261 L296.646135,45.5652174 L291.211353,46.2898551 C290.993961,47.4492754 290.993961,48.8985507 291.211353,50.2753623 L308.240338,50.2753623 C308.457729,48.8985507 308.457729,47.4492754 308.240338,46.2898551 L302.805556,45.5652174 L302.805556,28.9710145 C304.762077,29.115942 306.863527,29.1884058 309.03744,29.2608696 L323.602657,50.2753623 L333.167874,50.2753623 C333.385266,48.8985507 333.385266,47.4492754 333.167874,46.2898551 L327.733092,45.5652174 Z M302.805556,6.72463768 C305.269324,6.50724638 307.805556,6.43478261 310.559179,6.43478261 C315.849034,6.43478261 319.834541,8.97101449 319.834541,15.4927536 C319.834541,21.2898551 315.849034,23.826087 310.559179,23.826087 C307.805556,23.826087 305.269324,23.7536232 302.805556,23.5362319 L302.805556,6.72463768 Z M349.576892,13.6811594 C349.576892,8.60869565 352.258052,6.43478261 357.982689,6.43478261 C360.373994,6.43478261 362.62037,6.94202899 364.649356,7.66666667 L365.373994,15.2028986 C366.605878,15.4202899 368.852254,15.4202899 370.084138,15.2028986 L370.084138,4.1884058 C366.678341,2.44927536 363.200081,1 357.982689,1 C348.489936,1 343.417472,6.14492754 343.417472,13.6811594 C343.417472,29.9855072 366.316023,25.8550725 366.316023,37.5217391 C366.316023,43.3913043 361.823269,45.5652174 356.388486,45.5652174 C353.852254,45.5652174 351.316023,45.057971 348.997182,44.1884058 L348.272544,36.7971014 C347.04066,36.5797101 344.794283,36.5797101 343.562399,36.7971014 L343.562399,47.8115942 C346.968196,49.5507246 351.171095,51 356.388486,51 C366.823269,51 372.547907,46 372.547907,37.5217391 C372.547907,21.3623188 349.576892,24.7681159 349.576892,13.6811594 L349.576892,13.6811594 Z" id="PROSPERS-Copy" stroke="#D7A05A" stroke-width="2" fill="#D7A05A"></path>
    </g>
</svg>