<?xml version="1.0" encoding="UTF-8" standalone="no"?>
<svg width="95px" height="144px" viewBox="0 0 95 144" version="1.1" xmlns="http://www.w3.org/2000/svg" xmlns:xlink="http://www.w3.org/1999/xlink">
    <!-- Generator: Sketch 3.8.3 (29802) - http://www.bohemiancoding.com/sketch -->
    <title>logo</title>
    <desc>Created with Sketch.</desc>
    <defs></defs>
    <g id="Book" stroke="none" stroke-width="1" fill="none" fill-rule="evenodd">
        <g id="cover" transform="translate(-282.000000, -182.000000)">
            <g id="logo" transform="translate(282.000000, 182.000000)">
                <path d="M1.02881904,9.42956812 L69.4437189,125.888618 L78.7398612,125.888618 L15.4406588,17.7615905 L69.0916649,17.7615905 L73.9557341,9.42956812 L1.02881904,9.42956812 L1.02881904,9.42956812 Z" id="Fill-1" fill="#F09B5F"></path>
                <path d="M70.0306041,124.853078 L76.9394755,124.853078 L14.5542616,18.287292 C14.4752896,18.1127376 14.4398759,18.0709625 14.4182539,17.8771318 C14.4102192,17.8051126 14.4097351,17.731851 14.416817,17.6597347 C14.4454111,17.3685324 14.5989655,17.0980624 14.8337177,16.9254298 C14.8918527,16.8826842 14.9548132,16.8458981 15.0205335,16.8163139 C15.1974187,16.7366657 15.2511545,16.7461776 15.4406646,16.7260472 L68.5029089,16.7260472 L72.1579136,10.4651114 L2.83239331,10.4651114 C25.2318021,48.594437 47.6312031,86.7237625 70.0306041,124.853078 L70.0306041,124.853078 Z M69.4437189,126.924169 C69.3731114,126.916775 69.301366,126.916695 69.2318964,126.901985 C69.0224075,126.857626 68.829447,126.746831 68.6848954,126.587913 C68.6369494,126.535215 68.6003631,126.473096 68.5581066,126.415688 L0.143216039,9.95662848 C0.0639363325,9.78205466 0.0284228916,9.74029904 0.00654989747,9.54637126 C-0.00157675846,9.47431322 -0.00214451291,9.40099338 0.00486527845,9.32881886 C0.0331720524,9.03736424 0.186645661,8.7665642 0.421493711,8.59369865 C0.4796507,8.55087536 0.542642982,8.51405044 0.608402478,8.48442744 C0.785394755,8.40466275 0.839177587,8.41417472 1.02882001,8.39402487 L73.9557341,8.39402487 C74.1451459,8.4141359 74.1988392,8.40464334 74.3756377,8.48419449 C74.6409028,8.60356004 74.8471516,8.83553571 74.9356569,9.11408122 C74.9575856,9.18307214 74.9723589,9.25476135 74.9794949,9.32683881 C74.9866309,9.39889686 74.9862066,9.47211964 74.9782606,9.54410004 C74.9568334,9.73783369 74.9215007,9.77962813 74.8427736,9.95418254 L69.9787044,18.2862049 C69.9364865,18.3438591 69.8999773,18.4062499 69.8520313,18.4591869 C69.7074219,18.6188522 69.5140564,18.7302393 69.3040468,18.7748291 C69.2344036,18.7896212 69.1624653,18.7896988 69.0916649,18.7971337 L17.2410445,18.7971337 L79.6262642,125.36292 L79.7157724,125.560773 C79.7567946,125.748081 79.7827734,125.796377 79.7637184,125.990474 C79.756621,126.06259 79.7419055,126.134343 79.7200154,126.203381 C79.6316451,126.482165 79.4253771,126.714397 79.1599962,126.833892 C78.9831013,126.913541 78.9293694,126.904036 78.7398612,126.924169 L69.4437189,126.924169 L69.4437189,126.924169 Z" id="Fill-3" fill="#1932C8"></path>
                <path d="M93.1517023,134.220636 L24.7367973,17.7615905 L15.4406588,17.7615905 L78.7398612,125.888618 L25.0888512,125.888618 L20.2247628,134.220636 L93.1517023,134.220636 L93.1517023,134.220636 Z" id="Fill-4" fill="#F09B5F"></path>
                <path d="M22.0226026,133.185085 L91.3481151,133.185085 L24.1498928,18.7971337 L17.2410445,18.7971337 L79.6262642,125.36292 C79.705242,125.537478 79.7406519,125.579252 79.7622719,125.773076 C79.7703144,125.845092 79.7707965,125.918357 79.7637184,125.990474 C79.7351167,126.281684 79.5815583,126.552144 79.3468042,126.724777 C79.288675,126.767526 79.2257242,126.8043 79.1599962,126.833892 C78.9831013,126.913541 78.9293694,126.904036 78.7398612,126.924169 L25.6776265,126.924169 C24.4592852,129.011142 23.2409439,131.098114 22.0226026,133.185085 L22.0226026,133.185085 Z M20.2247628,135.256178 C20.0353703,135.236067 19.9816769,135.245561 19.8048785,135.166004 C19.5396133,135.046644 19.3333645,134.814665 19.2448419,134.536112 C19.222921,134.46713 19.2081495,134.395429 19.2010097,134.323362 C19.1938718,134.251294 19.1942884,134.178071 19.2022479,134.106091 C19.2236693,133.912359 19.2590058,133.870568 19.3377233,133.696018 L24.2018117,125.364009 C24.244049,125.306343 24.2805581,125.243956 24.3285041,125.191014 C24.4730943,125.031352 24.6664597,124.919973 24.8764887,124.875379 C24.9461319,124.860591 25.0180701,124.860511 25.0888512,124.853078 L76.9394755,124.853078 L14.5542616,18.287292 L14.4647515,18.0894429 C14.4237274,17.9021347 14.3977582,17.8538372 14.416817,17.6597347 C14.4454111,17.3685324 14.5989655,17.0980624 14.8337177,16.9254298 C14.8918527,16.8826842 14.9548132,16.8458981 15.0205335,16.8163139 C15.1974187,16.7366657 15.2511545,16.7461776 15.4406646,16.7260472 L24.7367973,16.7260472 C24.8074048,16.7334238 24.8791502,16.7335209 24.9486005,16.7482159 C25.1580894,16.7925728 25.3510499,16.9033776 25.4956207,17.0623052 C25.5435475,17.1149898 25.5801338,17.1771088 25.6223903,17.2345107 L94.0372953,133.693568 C94.1165625,133.868136 94.152088,133.909888 94.1739588,134.103829 C94.206765,134.394806 94.112898,134.691902 93.9191083,134.910342 C93.8711237,134.964436 93.8171603,135.013696 93.7590118,135.056504 C93.7008633,135.099313 93.6378547,135.136138 93.5721073,135.165773 C93.395116,135.245532 93.3413262,135.236016 93.151683,135.256178 L20.2247628,135.256178 L20.2247628,135.256178 Z" id="Fill-7" fill="#1932C8"></path>
                <path d="M1.1446472,9.42956812 L5.7807461,1.03554325 L88.5185685,1.03554325 L5.7807461,142.614655 L1.1446472,134.213314 L74.0715682,9.42956812 L1.1446472,9.42956812 L1.1446472,9.42956812 Z" id="Fill-8" fill="#F09B5F"></path>
                <path d="M5.98306432,143.629982 L5.5535735,143.624643 L5.16367767,143.443269 L4.88133245,143.117473 L0.245241647,134.716127 C0.206522652,134.603773 0.147996811,134.496454 0.129085027,134.379067 C0.0773610763,134.058013 0.149566878,133.979098 0.257867683,133.688267 L72.2727255,10.4651114 L1.1446551,10.4651114 L0.72924278,10.3769412 L0.38456623,10.1274557 L0.169316405,9.75914827 L0.120145626,9.33470075 L0.245426603,8.92642358 L4.8815176,0.53239871 L5.11093514,0.249524284 C5.42197466,0.0653608421 5.42558122,0.064021401 5.7807461,0 L88.5185685,0 L88.9385685,0.0902084447 L89.2853766,0.345129317 L89.4985877,0.720328116 L89.5410564,1.15046341 L89.4053766,1.56056533 L6.66754645,143.139679 L6.37729188,143.458357 C6.24588398,143.515565 6.11447415,143.572774 5.98306432,143.629982 L5.98306432,143.629982 Z M5.80634687,140.528352 L86.7197836,2.0710865 L6.38592833,2.0710865 L2.89372021,8.39402487 L74.0715682,8.39402487 L74.4915682,8.48423331 L74.8383763,8.73915419 L75.0515875,9.1143724 L75.0940561,9.54450769 L74.958357,9.95460961 L2.32967395,134.228058 C3.48856492,136.328156 4.6474559,138.428254 5.80634687,140.528352 L5.80634687,140.528352 Z" id="Fill-9" fill="#1932C8"></path>
                <path d="M93.1517023,134.220636 L88.5155984,142.614655 L5.77777214,142.614655 L88.5155984,1.03554325 L93.1517023,9.43688651 L20.2247628,134.220636 L93.1517023,134.220636 L93.1517023,134.220636 Z" id="Fill-10" fill="#F09B5F"></path>
                <path d="M5.77778178,143.650202 L5.35779338,143.559991 L5.01098143,143.305074 L4.7977664,142.929866 L4.75529967,142.49974 L4.89098144,142.089635 L87.6287903,0.510521172 L87.9190314,0.191850669 L88.3132648,0.0202275015 L88.7427536,0.0255658536 L89.1326476,0.20693394 L89.4150005,0.532728717 L94.0511044,8.93407198 C94.0898315,9.04642973 94.1483657,9.15374032 94.1672664,9.27112583 C94.2189925,9.59218403 94.1467842,9.67109458 94.0384911,9.961928 L22.0236055,133.185097 L93.1517023,133.185097 L93.5671121,133.273263 L93.9117987,133.522747 L94.127035,133.891068 L94.1762153,134.315509 L94.0509308,134.723796 L89.4148076,143.11781 L89.1853959,143.400684 C88.8743641,143.584836 88.8707575,143.586172 88.5155791,143.650202 L5.77778178,143.650202 L5.77778178,143.650202 Z M7.57656665,141.57911 L87.9104104,141.57911 L91.4026378,135.256189 L20.2247628,135.256189 L19.8047628,135.165975 L19.4579547,134.911052 L19.2447397,134.535838 L19.2022806,134.105704 L19.337974,133.695599 L91.9666879,9.42213325 L88.4899861,3.12184891 C61.5188398,49.2742712 34.5477129,95.4266936 7.57656665,141.57911 L7.57656665,141.57911 Z" id="Fill-11" fill="#1932C8"></path>
            </g>
        </g>
    </g>
</svg>