<?xml version="1.0" encoding="UTF-8" standalone="no"?>
<svg width="74px" height="113px" viewBox="0 0 74 113" version="1.1" xmlns="http://www.w3.org/2000/svg" xmlns:xlink="http://www.w3.org/1999/xlink">
    <!-- Generator: Sketch 3.8.3 (29802) - http://www.bohemiancoding.com/sketch -->
    <title>logo</title>
    <desc>Created with Sketch.</desc>
    <defs>
        <linearGradient x1="92.3708176%" y1="3.88090273%" x2="72.5119468%" y2="3.88090273%" id="linearGradient-1">
            <stop stop-color="#F09B5F" offset="0%"></stop>
            <stop stop-color="#FFFFFF" offset="100%"></stop>
        </linearGradient>
        <linearGradient x1="14.2487842%" y1="96.4124643%" x2="27.4880477%" y2="96.4124643%" id="linearGradient-2">
            <stop stop-color="#F09B5F" offset="0%"></stop>
            <stop stop-color="#FFFFFF" offset="100%"></stop>
        </linearGradient>
    </defs>
    <g id="Identity" stroke="none" stroke-width="1" fill="none" fill-rule="evenodd">
        <g id="logomark" transform="translate(-225.000000, -544.000000)">
            <g id="logo" transform="translate(225.000000, 544.000000)">
                <path d="M0.807337166,7.39959165 L54.4940294,98.7875959 L61.7889188,98.7875959 L12.1166281,13.9379147 L54.2177648,13.9379147 L58.034708,7.39959165 L0.807337166,7.39959165 L0.807337166,7.39959165 Z" id="Fill-1" fill="url(#linearGradient-1)"></path>
                <path d="M54.9545713,97.9749852 L60.3761162,97.9749852 L11.4210525,14.3504444 C11.3590814,14.2134677 11.3312915,14.1806859 11.3143242,14.0285826 C11.3080192,13.9720675 11.3076393,13.9145775 11.3131967,13.8579863 C11.3356351,13.6294734 11.4561327,13.4172295 11.6403479,13.2817609 C11.6859677,13.2482174 11.7353742,13.2193506 11.7869464,13.1961352 C11.9257522,13.1336335 11.9679199,13.1410977 12.1166327,13.1253009 L53.7557549,13.1253009 L56.6239183,8.21220545 L2.22264197,8.21220545 C19.7999558,38.1331346 37.3772635,68.0540637 54.9545713,97.9749852 L54.9545713,97.9749852 Z M54.4940294,99.6002158 C54.4386221,99.5944135 54.3823219,99.594351 54.3278076,99.5828073 C54.163417,99.547998 54.0119966,99.4610546 53.8985638,99.3363482 C53.8609395,99.2949947 53.8322294,99.2462486 53.7990698,99.2011995 L0.112384809,7.81318762 C0.0501722609,7.67619567 0.0223040746,7.64342911 0.00513985009,7.49124967 C-0.0012373174,7.43470412 -0.00168284694,7.37716841 0.00381789212,7.32053146 C0.0260308467,7.09182055 0.146464998,6.87931774 0.330755482,6.7436663 C0.376392563,6.71006191 0.425824007,6.68116458 0.477426944,6.65791875 C0.616316717,6.59532563 0.658521301,6.60278989 0.807337923,6.58697785 L58.034708,6.58697785 C58.1833436,6.60275942 58.225478,6.5953104 58.3642157,6.65773595 C58.5723751,6.75140476 58.7342231,6.93344122 58.8036752,7.15202206 C58.8208831,7.20616077 58.8324761,7.26241689 58.8380759,7.31897768 C58.8436756,7.37552323 58.8433427,7.43298277 58.8371073,7.48946739 C58.8202929,7.64149449 58.7925665,7.67429152 58.7307876,7.81126824 L54.9138444,14.3495913 C54.8807151,14.3948339 54.8520655,14.4437933 54.8144412,14.4853342 C54.700963,14.610627 54.5492248,14.698035 54.3844256,14.7330256 C54.329775,14.7446333 54.2733235,14.7446942 54.2177648,14.7505285 L13.5294307,14.7505285 L62.484499,98.3750693 L62.5547381,98.5303289 C62.5869291,98.6773138 62.6073152,98.7152124 62.5923624,98.8675244 C62.5867929,98.9241156 62.5752453,98.980422 62.5580677,99.0345973 C62.4887215,99.2533655 62.3268584,99.4356031 62.1186081,99.5293739 C61.9797948,99.5918756 61.9376301,99.5844175 61.7889188,99.6002158 L54.4940294,99.6002158 L54.4940294,99.6002158 Z" id="Fill-3" fill="#F09B5F"></path>
                <path d="M73.0982109,105.325916 L19.4115145,13.9379147 L12.1166281,13.9379147 L61.7889188,98.7875959 L19.6877791,98.7875959 L15.8708208,105.325916 L73.0982109,105.325916 L73.0982109,105.325916 Z" id="Fill-4" fill="url(#linearGradient-2)"></path>
                <path d="M17.2816256,104.513296 L71.6828959,104.513296 L18.9509575,14.7505285 L13.5294307,14.7505285 L62.484499,98.3750693 C62.5464747,98.5120491 62.5742615,98.5448293 62.5912273,98.696928 C62.5975383,98.7534401 62.5979167,98.8109331 62.5923624,98.8675244 C62.5699179,99.0960434 62.4494173,99.3082796 62.2652006,99.4437482 C62.2195853,99.4772947 62.1701864,99.5061525 62.1186081,99.5293739 C61.9797948,99.5918756 61.9376301,99.5844175 61.7889188,99.6002158 L20.1498041,99.6002158 C19.1937446,101.23791 18.2376851,102.875603 17.2816256,104.513296 L17.2816256,104.513296 Z M15.8708208,106.138528 C15.7222003,106.122747 15.6800659,106.130197 15.5413283,106.067767 C15.3331688,105.974103 15.1713208,105.792063 15.1018551,105.573476 C15.0846533,105.519345 15.0730618,105.46308 15.067459,105.406527 C15.0618577,105.349974 15.0621846,105.292514 15.0684306,105.23603 C15.0852405,105.084004 15.1129698,105.05121 15.1747412,104.914236 L18.9916995,98.3759239 C19.024844,98.3306722 19.0534935,98.2817158 19.0911178,98.2401704 C19.2045809,98.1148806 19.3563191,98.0274787 19.5211335,97.992485 C19.575784,97.9808804 19.6322356,97.9808179 19.6877791,97.9749852 L60.3761162,97.9749852 L11.4210525,14.3504444 L11.3508119,14.1951878 C11.3186194,14.0482029 11.2982408,14.0103028 11.3131967,13.8579863 C11.3356351,13.6294734 11.4561327,13.4172295 11.6403479,13.2817609 C11.6859677,13.2482174 11.7353742,13.2193506 11.7869464,13.1961352 C11.9257522,13.1336335 11.9679199,13.1410977 12.1166327,13.1253009 L19.4115145,13.1253009 C19.4669218,13.1310895 19.523222,13.1311657 19.5777212,13.1426972 C19.7421118,13.177505 19.8935322,13.264456 20.0069802,13.38917 C20.0445893,13.4305129 20.0732994,13.479259 20.106459,13.5243035 L73.7931554,104.912314 C73.855358,105.049301 73.8832357,105.082065 73.9003982,105.234255 C73.9261419,105.462591 73.8524825,105.695729 73.7004113,105.867143 C73.6627568,105.909592 73.6204105,105.948248 73.5747801,105.98184 C73.5291497,106.015433 73.4797054,106.044331 73.428112,106.067586 C73.289223,106.130174 73.2470129,106.122707 73.0981957,106.138528 L15.8708208,106.138528 L15.8708208,106.138528 Z" id="Fill-7" fill="#F09B5F"></path>
                <path d="M0.898230091,7.39959165 L4.53627993,0.8126138 L69.4624878,0.8126138 L4.53627993,111.912889 L0.898230091,105.32017 L58.1256056,7.39959165 L0.898230091,7.39959165 L0.898230091,7.39959165 Z" id="Fill-8" fill="#FFFFFF"></path>
                <path d="M4.69504353,112.709639 L4.35801254,112.705449 L4.05205261,112.563121 L3.83049005,112.307461 L0.19244657,105.714738 C0.162062914,105.626572 0.116136386,105.542357 0.10129589,105.45024 C0.0607069557,105.198302 0.117368453,105.136376 0.202354501,104.908154 L56.7140138,8.21220545 L0.898236297,8.21220545 L0.572253015,8.14301636 L0.301777667,7.94723958 L0.132866345,7.65822052 L0.0942809425,7.32514712 L0.19259171,7.00476295 L3.83063534,0.417785099 L4.01066438,0.195807251 C4.25474401,0.0512901053 4.25757415,0.0502390161 4.53627993,0 L69.4624878,0 L69.7920711,0.0707885712 L70.0642191,0.270830645 L70.2315307,0.56525748 L70.2648568,0.902794205 L70.1583858,1.22461029 L5.23217186,112.324887 L5.00440266,112.57496 C4.90128396,112.619853 4.79816374,112.664746 4.69504353,112.709639 L4.69504353,112.709639 Z M4.55636942,110.27572 L68.0509413,1.6252276 L5.01117987,1.6252276 L2.27076655,6.58697785 L58.1256056,6.58697785 L58.455189,6.65776642 L58.727337,6.85780849 L58.8946485,7.15225056 L58.9279746,7.48978729 L58.8214885,7.81160337 L1.82814692,105.33174 C2.73755442,106.979733 3.64696192,108.627727 4.55636942,110.27572 L4.55636942,110.27572 Z" id="Fill-9" fill="#F09B5F"></path>
                <path d="M73.0982109,105.325916 L69.4601571,111.912889 L4.53394619,111.912889 L69.4601571,0.8126138 L73.0982109,7.40533456 L15.8708208,105.325916 L73.0982109,105.325916 L73.0982109,105.325916 Z" id="Fill-10" fill="#FFFFFF"></path>
                <path d="M4.53395376,112.725506 L4.20437952,112.654715 L3.93222849,112.454676 L3.76491391,112.160242 L3.73158933,111.822712 L3.83806182,111.500894 L68.7642591,0.400617309 L68.9920177,0.150549483 L69.3013814,0.0158729699 L69.6384108,0.0200620934 L69.9443693,0.162385661 L70.1659379,0.418044063 L73.8039917,7.01076482 C73.8343817,7.09893444 73.8803148,7.18314344 73.8951466,7.27525846 C73.9357372,7.52719997 73.8790737,7.58912283 73.7940937,7.81734628 L17.2824126,104.513305 L73.0982109,104.513305 L73.4241922,104.582491 L73.6946754,104.778266 L73.8635761,105.067296 L73.9021689,105.400365 L73.8038554,105.720757 L70.1657865,112.307726 L69.985762,112.529703 C69.7416885,112.674212 69.7388583,112.67526 69.4601419,112.725506 L4.53395376,112.725506 L4.53395376,112.725506 Z M5.94550022,111.100274 L68.9852526,111.100274 L71.7256811,106.138537 L15.8708208,106.138537 L15.5412375,106.067744 L15.2690894,105.867701 L15.1017749,105.573262 L15.0684563,105.235726 L15.1749379,104.913907 L72.1683037,7.39375734 L69.4400585,2.44978421 C48.2752007,38.6666156 27.110358,74.8834471 5.94550022,111.100274 L5.94550022,111.100274 Z" id="Fill-11" fill="#F09B5F"></path>
            </g>
        </g>
    </g>
</svg>