<?xml version="1.0" encoding="UTF-8" standalone="no"?>
<svg width="329px" height="47px" viewBox="0 0 329 47" version="1.1" xmlns="http://www.w3.org/2000/svg" xmlns:xlink="http://www.w3.org/1999/xlink">
    <!-- Generator: Sketch 3.8.3 (29802) - http://www.bohemiancoding.com/sketch -->
    <title>PROSPERS</title>
    <desc>Created with Sketch.</desc>
    <defs>
        <linearGradient x1="50%" y1="17.5330529%" x2="50%" y2="79.0139223%" id="linearGradient-1">
            <stop stop-color="#F49E64" offset="0%"></stop>
            <stop stop-color="#DC8750" offset="100%"></stop>
        </linearGradient>
    </defs>
    <g id="Identity" stroke="none" stroke-width="1" fill="none" fill-rule="evenodd">
        <g id="z" transform="translate(-143.000000, -299.000000)" fill="url(#linearGradient-1)">
            <path d="M174.38,323.94 C171.439985,326.260012 167.530024,327.42 162.65,327.42 L153.23,327.42 C152.829998,327.42 152.63,327.619998 152.63,328.02 L152.63,343.8 C152.63,344.600004 152.190004,345 151.31,345 L144.83,345 C144.109996,345 143.75,344.640004 143.75,343.92 L143.75,301.5 C143.75,300.819997 144.049997,300.48 144.65,300.48 L161.63,300.48 C166.710025,300.48 170.839984,301.619989 174.02,303.9 C177.200016,306.180011 178.79,309.559978 178.79,314.04 C178.79,318.320021 177.320015,321.619988 174.38,323.94 L174.38,323.94 Z M167.39,308.61 C165.869992,307.469994 163.790013,306.9 161.15,306.9 L153.65,306.9 C152.969997,306.9 152.63,307.219997 152.63,307.86 L152.63,319.98 C152.63,320.340002 152.689999,320.599999 152.81,320.76 C152.930001,320.920001 153.129999,321 153.41,321 L161.51,321 C164.030013,321 166.019993,320.390006 167.48,319.17 C168.940007,317.949994 169.67,316.180012 169.67,313.86 C169.67,311.499988 168.910008,309.750006 167.39,308.61 L167.39,308.61 Z M220.85,344.1 C220.85,344.340001 220.770001,344.549999 220.61,344.73 C220.449999,344.910001 220.230001,345 219.95,345 L212.63,345 C212.309998,345 212.060001,344.930001 211.88,344.79 C211.699999,344.649999 211.550001,344.400002 211.43,344.04 L204.53,326.52 C204.409999,326.239999 204.230001,326.040001 203.99,325.92 C203.749999,325.799999 203.390002,325.74 202.91,325.74 L195.71,325.74 C195.229998,325.74 194.99,325.959998 194.99,326.4 L194.99,343.74 C194.99,344.180002 194.880001,344.499999 194.66,344.7 C194.439999,344.900001 194.090002,345 193.61,345 L187.25,345 C186.809998,345 186.510001,344.910001 186.35,344.73 C186.189999,344.549999 186.11,344.280002 186.11,343.92 L186.11,301.5 C186.11,300.819997 186.409997,300.48 187.01,300.48 L205.07,300.48 C210.230026,300.48 214.229986,301.51999 217.07,303.6 C219.910014,305.68001 221.33,308.639981 221.33,312.48 C221.33,315.480015 220.530008,317.97999 218.93,319.98 C217.329992,321.98001 215.330012,323.399996 212.93,324.24 C212.609998,324.360001 212.529999,324.619998 212.69,325.02 L220.73,343.56 C220.81,343.680001 220.85,343.859999 220.85,344.1 L220.85,344.1 Z M212.15,313.14 C212.15,310.979989 211.480007,309.340006 210.14,308.22 C208.799993,307.099994 206.930012,306.54 204.53,306.54 L196.07,306.54 C195.669998,306.54 195.390001,306.599999 195.23,306.72 C195.069999,306.840001 194.99,307.059998 194.99,307.38 L194.99,318.72 C194.99,319.040002 195.049999,319.269999 195.17,319.41 C195.290001,319.550001 195.489999,319.62 195.77,319.62 L203.81,319.62 C209.370028,319.62 212.15,317.460022 212.15,313.14 L212.15,313.14 Z M236.63,342.9 C233.629985,341.099991 231.320008,338.490017 229.7,335.07 C228.079992,331.649983 227.27,327.600023 227.27,322.92 C227.27,318.159976 228.089992,314.050017 229.73,310.59 C231.370008,307.129983 233.689985,304.480009 236.69,302.64 C239.690015,300.799991 243.22998,299.88 247.31,299.88 C251.35002,299.88 254.869985,300.799991 257.87,302.64 C260.870015,304.480009 263.189992,307.129983 264.83,310.59 C266.470008,314.050017 267.29,318.139976 267.29,322.86 C267.29,327.540023 266.480008,331.589983 264.86,335.01 C263.239992,338.430017 260.930015,341.049991 257.93,342.87 C254.929985,344.690009 251.39002,345.6 247.31,345.6 C243.189979,345.6 239.630015,344.700009 236.63,342.9 L236.63,342.9 Z M255.41,335.34 C257.130009,332.739987 257.99,328.620028 257.99,322.98 C257.99,317.219971 257.120009,312.980014 255.38,310.26 C253.639991,307.539986 250.950018,306.18 247.31,306.18 C243.669982,306.18 240.960009,307.539986 239.18,310.26 C237.399991,312.980014 236.51,317.219971 236.51,322.98 C236.51,328.620028 237.389991,332.739987 239.15,335.34 C240.910009,337.940013 243.649981,339.24 247.37,339.24 C251.010018,339.24 253.689991,337.940013 255.41,335.34 L255.41,335.34 Z M296.39,307.29 C294.949993,306.589996 293.110011,306.24 290.87,306.24 C288.229987,306.24 286.200007,306.749995 284.78,307.77 C283.359993,308.790005 282.65,310.179991 282.65,311.94 C282.65,314.380012 284.429982,316.159994 287.99,317.28 L297.23,320.04 C304.150035,322.12001 307.61,326.219969 307.61,332.34 C307.61,335.020013 306.910007,337.35999 305.51,339.36 C304.109993,341.36001 302.120013,342.899995 299.54,343.98 C296.959987,345.060005 293.910018,345.6 290.39,345.6 C286.46998,345.6 282.970015,344.930007 279.89,343.59 C276.809985,342.249993 274.470008,340.360012 272.87,337.92 C272.709999,337.519998 272.63,337.28 272.63,337.2 C272.63,336.879998 272.829998,336.580001 273.23,336.3 L277.01,333.66 C277.450002,333.419999 277.789999,333.3 278.03,333.3 C278.350002,333.3 278.609999,333.439999 278.81,333.72 C280.370008,335.76001 281.939992,337.199996 283.52,338.04 C285.100008,338.880004 287.209987,339.3 289.85,339.3 C292.730014,339.3 294.989992,338.820005 296.63,337.86 C298.270008,336.899995 299.09,335.44001 299.09,333.48 C299.09,332.199994 298.680004,331.120004 297.86,330.24 C297.039996,329.359996 295.59001,328.580003 293.51,327.9 L284.45,325.14 C281.129983,324.139995 278.590009,322.550011 276.83,320.37 C275.069991,318.189989 274.19,315.740014 274.19,313.02 C274.19,310.459987 274.869993,308.19001 276.23,306.21 C277.590007,304.22999 279.519988,302.680006 282.02,301.56 C284.520013,300.439994 287.409984,299.88 290.69,299.88 C293.850016,299.88 296.759987,300.429995 299.42,301.53 C302.080013,302.630005 304.189992,304.13999 305.75,306.06 C305.990001,306.380002 306.11,306.639999 306.11,306.84 C306.11,307.040001 305.990001,307.239999 305.75,307.44 L301.49,310.62 C301.329999,310.740001 301.170001,310.8 301.01,310.8 C300.809999,310.8 300.530002,310.600002 300.17,310.2 C299.089995,308.959994 297.830007,307.990004 296.39,307.29 L296.39,307.29 Z M345.62,323.94 C342.679985,326.260012 338.770024,327.42 333.89,327.42 L324.47,327.42 C324.069998,327.42 323.87,327.619998 323.87,328.02 L323.87,343.8 C323.87,344.600004 323.430004,345 322.55,345 L316.07,345 C315.349996,345 314.99,344.640004 314.99,343.92 L314.99,301.5 C314.99,300.819997 315.289997,300.48 315.89,300.48 L332.87,300.48 C337.950025,300.48 342.079984,301.619989 345.26,303.9 C348.440016,306.180011 350.03,309.559978 350.03,314.04 C350.03,318.320021 348.560015,321.619988 345.62,323.94 L345.62,323.94 Z M338.63,308.61 C337.109992,307.469994 335.030013,306.9 332.39,306.9 L324.89,306.9 C324.209997,306.9 323.87,307.219997 323.87,307.86 L323.87,319.98 C323.87,320.340002 323.929999,320.599999 324.05,320.76 C324.170001,320.920001 324.369999,321 324.65,321 L332.75,321 C335.270013,321 337.259993,320.390006 338.72,319.17 C340.180007,317.949994 340.91,316.180012 340.91,313.86 C340.91,311.499988 340.150008,309.750006 338.63,308.61 L338.63,308.61 Z M358.25,300.48 L387.35,300.48 C387.870003,300.48 388.13,300.779997 388.13,301.38 L388.13,305.94 C388.13,306.700004 387.770004,307.08 387.05,307.08 L367.25,307.08 C366.569997,307.08 366.23,307.359997 366.23,307.92 L366.23,318.42 C366.23,319.020003 366.509997,319.32 367.07,319.32 L380.75,319.32 C381.350003,319.32 381.65,319.619997 381.65,320.22 L381.65,325.08 C381.65,325.560002 381.370003,325.8 380.81,325.8 L367.01,325.8 C366.489997,325.8 366.23,326.039998 366.23,326.52 L366.23,337.68 C366.23,337.960001 366.28,338.149999 366.38,338.25 C366.480001,338.350001 366.649999,338.4 366.89,338.4 L387.89,338.4 C388.250002,338.4 388.499999,338.459999 388.64,338.58 C388.780001,338.700001 388.85,338.919998 388.85,339.24 L388.85,344.1 C388.85,344.340001 388.770001,344.549999 388.61,344.73 C388.449999,344.910001 388.190002,345 387.83,345 L358.49,345 C358.089998,345 357.800001,344.920001 357.62,344.76 C357.439999,344.599999 357.35,344.320002 357.35,343.92 L357.35,301.5 C357.35,300.819997 357.649997,300.48 358.25,300.48 L358.25,300.48 Z M430.79,344.1 C430.79,344.340001 430.710001,344.549999 430.55,344.73 C430.389999,344.910001 430.170001,345 429.89,345 L422.57,345 C422.249998,345 422.000001,344.930001 421.82,344.79 C421.639999,344.649999 421.490001,344.400002 421.37,344.04 L414.47,326.52 C414.349999,326.239999 414.170001,326.040001 413.93,325.92 C413.689999,325.799999 413.330002,325.74 412.85,325.74 L405.65,325.74 C405.169998,325.74 404.93,325.959998 404.93,326.4 L404.93,343.74 C404.93,344.180002 404.820001,344.499999 404.6,344.7 C404.379999,344.900001 404.030002,345 403.55,345 L397.19,345 C396.749998,345 396.450001,344.910001 396.29,344.73 C396.129999,344.549999 396.05,344.280002 396.05,343.92 L396.05,301.5 C396.05,300.819997 396.349997,300.48 396.95,300.48 L415.01,300.48 C420.170026,300.48 424.169986,301.51999 427.01,303.6 C429.850014,305.68001 431.27,308.639981 431.27,312.48 C431.27,315.480015 430.470008,317.97999 428.87,319.98 C427.269992,321.98001 425.270012,323.399996 422.87,324.24 C422.549998,324.360001 422.469999,324.619998 422.63,325.02 L430.67,343.56 C430.75,343.680001 430.79,343.859999 430.79,344.1 L430.79,344.1 Z M422.09,313.14 C422.09,310.979989 421.420007,309.340006 420.08,308.22 C418.739993,307.099994 416.870012,306.54 414.47,306.54 L406.01,306.54 C405.609998,306.54 405.330001,306.599999 405.17,306.72 C405.009999,306.840001 404.93,307.059998 404.93,307.38 L404.93,318.72 C404.93,319.040002 404.989999,319.269999 405.11,319.41 C405.230001,319.550001 405.429999,319.62 405.71,319.62 L413.75,319.62 C419.310028,319.62 422.09,317.460022 422.09,313.14 L422.09,313.14 Z M460.13,307.29 C458.689993,306.589996 456.850011,306.24 454.61,306.24 C451.969987,306.24 449.940007,306.749995 448.52,307.77 C447.099993,308.790005 446.39,310.179991 446.39,311.94 C446.39,314.380012 448.169982,316.159994 451.73,317.28 L460.97,320.04 C467.890035,322.12001 471.35,326.219969 471.35,332.34 C471.35,335.020013 470.650007,337.35999 469.25,339.36 C467.849993,341.36001 465.860013,342.899995 463.28,343.98 C460.699987,345.060005 457.650018,345.6 454.13,345.6 C450.20998,345.6 446.710015,344.930007 443.63,343.59 C440.549985,342.249993 438.210008,340.360012 436.61,337.92 C436.449999,337.519998 436.37,337.28 436.37,337.2 C436.37,336.879998 436.569998,336.580001 436.97,336.3 L440.75,333.66 C441.190002,333.419999 441.529999,333.3 441.77,333.3 C442.090002,333.3 442.349999,333.439999 442.55,333.72 C444.110008,335.76001 445.679992,337.199996 447.26,338.04 C448.840008,338.880004 450.949987,339.3 453.59,339.3 C456.470014,339.3 458.729992,338.820005 460.37,337.86 C462.010008,336.899995 462.83,335.44001 462.83,333.48 C462.83,332.199994 462.420004,331.120004 461.6,330.24 C460.779996,329.359996 459.33001,328.580003 457.25,327.9 L448.19,325.14 C444.869983,324.139995 442.330009,322.550011 440.57,320.37 C438.809991,318.189989 437.93,315.740014 437.93,313.02 C437.93,310.459987 438.609993,308.19001 439.97,306.21 C441.330007,304.22999 443.259987,302.680006 445.76,301.56 C448.260013,300.439994 451.149984,299.88 454.43,299.88 C457.590016,299.88 460.499987,300.429995 463.16,301.53 C465.820013,302.630005 467.929992,304.13999 469.49,306.06 C469.730001,306.380002 469.85,306.639999 469.85,306.84 C469.85,307.040001 469.730001,307.239999 469.49,307.44 L465.23,310.62 C465.069999,310.740001 464.910001,310.8 464.75,310.8 C464.549999,310.8 464.270002,310.600002 463.91,310.2 C462.829995,308.959994 461.570007,307.990004 460.13,307.29 L460.13,307.29 Z" id="PROSPERS"></path>
        </g>
    </g>
</svg>